<svg version="1.1" id="Layer_1" xmlns="http://www.w3.org/2000/svg" xmlns:xlink="http://www.w3.org/1999/xlink" x="0px" y="0px"
	 width="100%" viewBox="0 0 500 500" enable-background="new 0 0 500 500" xml:space="preserve">
<path fill="#E3EADE" opacity="1.000000" stroke="none" 
	d="
M1.000000,168.000000 
	C1.000000,112.013855 1.000000,56.527714 1.000000,1.020786 
	C167.611191,1.020786 334.222382,1.020786 500.916809,1.020786 
	C500.916809,167.569550 500.916809,334.139130 500.916809,500.854370 
	C334.333435,500.854370 167.666733,500.854370 1.000000,500.854370 
	C1.000000,390.110809 1.000000,279.305420 1.000000,168.000000 
M417.586456,454.943542 
	C418.063690,454.625763 418.540894,454.308014 419.495422,453.990540 
	C419.495422,453.990540 419.972748,453.995789 420.404999,453.768311 
	C420.675385,453.569489 420.869263,453.312866 420.998383,452.996399 
	C420.998383,452.996399 420.993530,452.983551 421.649200,452.918762 
	C422.761261,451.944000 423.873322,450.969238 424.998779,449.997559 
	C424.998779,449.997559 424.995392,449.983643 425.724396,449.980682 
	C428.814240,447.316986 431.904053,444.653290 435.000000,442.000000 
	C435.000000,442.000000 434.991333,441.994171 435.624817,441.894531 
	C436.082336,441.254059 436.539825,440.613586 437.277313,439.429626 
	C438.173676,438.617920 439.070038,437.806213 440.647003,436.914459 
	C441.427673,435.938965 442.208344,434.963440 443.007202,433.250519 
	C443.857330,431.905121 444.711639,430.562286 445.556885,429.213806 
	C448.642151,424.291656 453.752075,420.494232 454.628326,413.711487 
	C455.414673,412.492523 456.201050,411.273590 457.656250,409.906830 
	C458.436737,408.582001 459.217224,407.257172 459.989197,405.489166 
	C459.989197,405.489166 459.987885,405.045929 460.491028,404.596161 
	C460.658783,403.729370 460.826508,402.862610 460.993866,401.145996 
	C461.499878,398.081970 462.014191,395.019287 462.510345,391.953644 
	C463.629944,385.035706 464.802246,378.125305 465.816589,371.191833 
	C466.113739,369.160370 465.951630,367.061737 466.780640,364.790924 
	C467.191101,363.118042 467.944244,361.447876 467.957397,359.771881 
	C468.054810,347.322449 468.003174,334.871826 468.002380,322.421600 
	C468.000793,296.927307 468.031525,271.432861 467.916351,245.939072 
	C467.910400,244.621964 466.665588,243.310455 465.997406,241.088959 
	C466.330597,236.810287 466.915405,232.533722 466.951141,228.252563 
	C467.071625,213.809891 467.080750,199.364853 466.951141,184.922333 
	C466.906464,179.947754 466.329834,174.977936 465.995361,169.138519 
	C465.981354,167.968918 465.967316,166.799316 466.352936,165.119904 
	C469.975861,161.666931 470.543060,157.535965 469.173615,152.228363 
	C469.133575,151.501648 469.093567,150.774918 469.409912,149.311844 
	C469.128937,137.924271 469.359436,126.492752 468.385864,115.164711 
	C467.745026,107.708656 465.368927,100.401749 463.798615,92.371338 
	C463.671143,91.955154 463.543671,91.538971 463.562500,90.377243 
	C462.386230,87.562660 461.209961,84.748085 460.000519,81.987572 
	C460.000519,81.987572 460.063965,81.987839 460.040436,81.254196 
	C458.757141,79.009590 457.473816,76.764977 456.168365,74.022522 
	C456.104156,73.688698 455.964417,73.390198 455.723999,72.427277 
	C454.478882,70.619171 453.233765,68.811058 451.998779,67.001221 
	C451.998779,67.001221 451.995239,67.011658 451.890045,66.477341 
	C451.602203,66.274498 451.314392,66.071648 450.868439,65.459869 
	C450.868439,65.459869 450.577820,65.131584 450.622864,64.488121 
	C449.767792,63.598736 448.912689,62.709347 447.796661,61.265625 
	C447.075806,60.546276 446.354919,59.826931 445.629364,58.439903 
	C438.120697,49.365524 429.721954,41.364895 418.547913,36.044636 
	C418.547913,36.044636 418.125824,35.973625 417.802155,35.382694 
	C408.872131,29.880161 399.016937,26.621662 388.748138,25.601328 
	C372.553070,23.992136 356.265625,22.542742 340.009491,22.454351 
	C277.887512,22.116566 215.762344,22.309826 153.638519,22.407024 
	C142.821243,22.423948 131.928482,22.235979 121.208412,23.405685 
	C109.541092,24.678749 97.952255,27.067354 86.498581,29.705074 
	C81.987762,30.743891 77.935020,33.771828 73.347160,35.961369 
	C73.347160,35.961369 73.107971,36.193630 72.412453,36.249947 
	C70.622276,37.514381 68.832100,38.778816 67.000000,40.000000 
	C67.000000,40.000000 67.041756,40.043182 66.374283,40.143570 
	C65.187393,41.078785 64.000511,42.014004 62.418587,43.109924 
	C62.418587,43.109924 62.139923,43.432762 61.489212,43.425823 
	C60.220490,44.577579 58.951771,45.729336 57.338863,47.038685 
	C57.338863,47.038685 57.117111,47.345478 56.524910,47.370800 
	C56.055824,47.945213 55.586742,48.519623 54.659027,49.311920 
	C54.472599,49.587959 54.286175,49.863998 53.468121,50.260426 
	C52.681206,51.203926 51.894291,52.147423 50.656693,53.304390 
	C50.375305,53.507000 50.187237,53.775082 49.462673,54.226009 
	C48.725948,55.195133 47.989220,56.164257 46.990799,57.320305 
	C46.990799,57.320305 46.879993,57.622215 46.245026,57.909019 
	C43.242245,62.314335 40.239460,66.719650 36.994354,71.374535 
	C36.994354,71.374535 36.912117,71.712532 36.286392,72.022964 
	C34.045856,77.059120 31.805321,82.095284 29.310049,87.733620 
	C29.273705,88.165840 29.237360,88.598068 28.674971,89.527573 
	C27.254827,96.391304 25.834684,103.255043 24.263599,110.923050 
	C24.245058,112.286835 24.226519,113.650627 23.810028,115.694168 
	C23.490530,127.829620 23.171032,139.965073 22.727276,152.924423 
	C22.769472,154.587570 22.811666,156.250732 22.499996,158.497787 
	C23.151737,161.091827 23.803478,163.685883 25.075701,166.905350 
	C25.051403,170.140884 24.965834,173.377319 25.012701,176.611832 
	C25.328503,198.406265 25.672388,220.200302 25.327759,242.126968 
	C24.889793,243.089661 24.451828,244.052353 24.004608,245.948990 
	C24.006470,272.295654 24.008331,298.642303 24.003029,325.745544 
	C24.006729,326.502167 24.010429,327.258789 24.003208,328.949554 
	C24.001072,339.484009 23.923767,350.019623 24.083469,360.551636 
	C24.105652,362.014587 25.296825,363.459839 25.992741,365.700165 
	C26.633749,371.134888 26.926754,376.639130 27.994757,381.988586 
	C29.734388,390.702271 31.980297,399.314880 33.587299,408.387543 
	C34.391518,408.931732 35.195736,409.475922 35.771782,410.522552 
	C35.516064,411.011505 35.260345,411.500458 34.517365,412.445068 
	C35.345882,413.961426 36.174400,415.477783 37.000153,417.000000 
	C37.000153,417.000000 37.006138,416.996826 37.015907,417.749146 
	C38.204983,421.459229 38.712200,425.746582 44.307232,426.583984 
	C46.906380,429.324005 49.555511,432.018707 52.091747,434.815796 
	C55.117073,438.152252 58.045635,441.576416 60.750751,445.282135 
	C61.166935,445.517395 61.583122,445.752686 62.001701,445.998779 
	C62.001701,445.998779 62.012894,445.997223 62.089191,446.687744 
	C65.062477,448.787842 68.035759,450.887939 71.000000,453.000000 
	C71.000000,453.000000 71.009216,452.990387 71.197189,453.295227 
	C71.473923,453.192902 71.750656,453.090607 72.754135,453.091034 
	C81.391426,456.102325 90.040810,459.079681 98.657791,462.148010 
	C100.914658,462.951599 103.024330,464.706482 105.282516,464.863922 
	C111.187134,465.275574 117.140556,464.935944 123.064896,465.155579 
	C124.392090,465.204773 125.679893,466.316559 127.586555,467.529327 
	C129.059952,467.685486 130.533310,467.977875 132.006729,467.978302 
	C207.947678,467.999329 283.888611,468.002563 359.829529,467.950409 
	C361.557526,467.949219 363.285095,467.291290 365.531769,466.377930 
	C367.586609,465.918457 369.621521,465.316467 371.699951,465.025513 
	C378.693481,464.046478 385.792999,463.606628 392.681244,462.152008 
	C400.206085,460.563019 407.540863,458.074097 415.333771,456.390808 
	C415.887329,455.924164 416.440887,455.457520 417.000000,455.000000 
	C417.000000,455.000000 416.993103,454.994751 417.586456,454.943542 
z"/>
<path fill="#B2612F" opacity="1.000000" stroke="none" 
	d="
M445.634064,59.107590 
	C446.354919,59.826931 447.075806,60.546276 447.925476,61.876511 
	C448.895447,63.368797 449.736633,64.250198 450.577820,65.131592 
	C450.577820,65.131584 450.868439,65.459869 451.027832,65.915237 
	C451.456543,66.584290 451.725891,66.797974 451.995239,67.011658 
	C451.995239,67.011658 451.998779,67.001221 452.022614,67.359634 
	C453.280701,69.521042 454.514954,71.324036 455.749207,73.127029 
	C455.964417,73.390198 456.104156,73.688698 456.146271,74.661285 
	C457.437439,77.529312 458.750702,79.758575 460.063965,81.987839 
	C460.063965,81.987839 460.000519,81.987572 460.027710,82.344711 
	C461.175323,85.508835 462.295746,88.315811 463.416168,91.122787 
	C463.543671,91.538971 463.671143,91.955154 463.568726,92.977509 
	C466.988251,111.319603 468.655579,129.227402 468.096436,147.339508 
	C468.068939,148.231720 468.718994,149.144821 469.053558,150.048203 
	C469.093567,150.774918 469.133575,151.501648 468.843994,152.885483 
	C466.987488,163.023361 466.987488,163.021255 456.886566,163.021347 
	C315.371765,163.022491 173.856918,163.004242 32.342201,163.117706 
	C27.868311,163.121307 24.603548,162.240646 22.853861,157.913879 
	C22.811666,156.250732 22.769472,154.587570 23.081093,152.199249 
	C23.607687,149.678238 23.906748,147.884109 23.930901,146.086273 
	C24.024532,139.116623 24.022070,132.145721 24.073090,125.175415 
	C24.097881,121.788261 24.161783,118.401405 24.207977,115.014412 
	C24.226519,113.650627 24.245058,112.286835 24.669872,110.358170 
	C25.992615,105.860344 26.994461,101.944740 27.797487,97.988770 
	C28.398178,95.029579 28.742525,92.018349 29.201014,89.030289 
	C29.237360,88.598068 29.273705,88.165840 29.726891,87.293472 
	C32.399860,81.806396 34.655991,76.759468 36.912117,71.712532 
	C36.912117,71.712532 36.994354,71.374535 37.435287,71.160889 
	C40.877480,66.505577 43.878738,62.063896 46.879997,57.622215 
	C46.879993,57.622215 46.990799,57.320305 47.437313,57.160080 
	C48.620049,56.036110 49.356266,55.072372 50.092484,54.108635 
	C50.187237,53.775082 50.375305,53.507000 51.208900,53.150867 
	C52.540653,52.044907 53.320198,51.092472 54.099747,50.140034 
	C54.286175,49.863998 54.472599,49.587959 55.178288,49.161865 
	C56.170734,48.456367 56.643925,47.900921 57.117111,47.345478 
	C57.117111,47.345478 57.338863,47.038685 57.864792,46.969151 
	C59.640453,45.743996 60.890186,44.588379 62.139923,43.432762 
	C62.139923,43.432762 62.418587,43.109924 62.991402,43.052765 
	C64.723396,42.011463 65.882576,41.027321 67.041756,40.043182 
	C67.041756,40.043182 67.000000,40.000000 67.376923,39.985977 
	C69.538559,38.712513 71.323265,37.453072 73.107971,36.193630 
	C73.107971,36.193630 73.347160,35.961369 73.904785,35.935688 
	C93.027702,27.314299 112.897110,24.181894 132.982727,24.165585 
	C213.175934,24.100471 293.371399,24.484131 373.561523,25.203039 
	C387.112366,25.324522 400.519470,28.387409 412.967072,34.446075 
	C414.557648,35.220268 416.400085,35.477108 418.125824,35.973625 
	C418.125824,35.973625 418.547913,36.044636 418.819763,36.477882 
	C424.270203,41.261501 429.442657,45.619171 434.629456,49.959736 
	C438.287598,53.021049 441.965149,56.059139 445.634064,59.107590 
z"/>
<path fill="#F3E5DA" opacity="1.000000" stroke="none" 
	d="
M466.000000,364.993896 
	C465.951630,367.061737 466.113739,369.160370 465.816589,371.191833 
	C464.802246,378.125305 463.629944,385.035706 462.510345,391.953644 
	C462.014191,395.019287 461.499878,398.081970 460.744507,401.794250 
	C460.326019,403.310272 460.156952,404.178101 459.987854,405.045929 
	C459.987885,405.045929 459.989197,405.489166 459.620178,405.812439 
	C457.098389,406.754852 454.945923,407.914734 452.792786,407.915924 
	C313.199402,407.993805 173.605988,407.977814 34.012566,407.970123 
	C31.980297,399.314880 29.734388,390.702271 27.994757,381.988586 
	C26.926754,376.639130 26.633749,371.134888 25.974934,364.877747 
	C25.665348,352.039703 25.373569,340.024109 25.510399,328.009857 
	C35.726776,327.676178 45.514400,327.054199 55.302330,327.049438 
	C188.201523,326.984894 321.100769,327.005890 454.435791,327.007385 
	C456.513306,327.149231 458.158875,327.443054 459.796021,327.401703 
	C465.353210,327.261261 466.334564,330.181488 466.126129,335.178009 
	C465.712189,345.101135 466.001404,355.053558 466.000000,364.993896 
z"/>
<path fill="#F2E5DA" opacity="1.000000" stroke="none" 
	d="
M465.996185,170.005951 
	C466.329834,174.977936 466.906464,179.947754 466.951141,184.922333 
	C467.080750,199.364853 467.071625,213.809891 466.951141,228.252563 
	C466.915405,232.533722 466.330597,236.810287 465.625366,241.550720 
	C464.509521,242.023071 463.765717,242.033676 462.552063,242.032257 
	C316.723846,242.011627 171.365509,242.003036 26.007179,241.994461 
	C25.672388,220.200302 25.328503,198.406265 25.012701,176.611832 
	C24.965834,173.377319 25.051403,170.140884 24.862854,166.306976 
	C25.832880,165.579681 27.015755,165.450760 28.159534,165.779175 
	C28.920355,171.253601 32.834789,168.589630 35.284859,168.869919 
	C38.626762,169.252243 41.587994,169.215271 42.074219,173.626007 
	C42.235474,175.088791 43.424511,176.438263 44.143661,177.839539 
	C44.972176,176.382034 46.661652,174.799774 46.471836,173.489822 
	C45.838680,169.120346 48.216610,168.879608 51.402466,168.982559 
	C59.349331,169.239334 67.299927,169.600174 75.247566,169.567322 
	C91.832214,169.498764 108.415909,169.203018 124.991837,169.364487 
	C124.810135,170.942062 124.636589,172.155746 124.521019,172.964005 
	C126.240898,174.129837 127.620445,175.064957 128.791977,176.336090 
	C126.887489,177.114685 125.198471,177.902435 123.493263,177.939209 
	C116.667824,178.086380 109.836113,177.930573 103.009674,178.052399 
	C101.409630,178.080948 99.821136,178.757172 97.198616,179.379547 
	C99.172913,181.575500 100.307327,182.837265 101.249710,183.885452 
	C103.563271,182.521118 105.032425,181.292877 106.715759,180.807617 
	C107.620644,180.546783 108.893097,181.561081 109.625458,182.009003 
	C107.509865,183.875290 105.446930,185.554489 104.251152,187.713913 
	C103.948631,188.260208 106.155632,191.004288 107.655251,191.582703 
	C111.525169,193.075333 114.070000,189.320175 113.425217,184.002151 
	C115.572044,184.001892 117.289604,184.002548 118.851761,184.349365 
	C117.520439,187.401443 117.477196,190.216553 120.447296,191.353485 
	C121.996254,191.946396 124.689865,191.264420 126.040596,190.153824 
	C127.271263,189.141968 127.386246,186.773178 128.342987,184.954681 
	C132.285156,182.542114 134.966019,179.781174 132.955658,174.658966 
	C132.607529,172.212372 132.303772,170.106796 132.449982,168.000977 
	C135.599976,168.000687 138.299988,168.000641 140.998901,168.387024 
	C140.665207,170.515640 140.332596,172.257812 139.662155,174.077209 
	C135.815643,178.407486 141.049072,178.870117 142.512451,180.624893 
	C143.293213,181.561111 145.968567,180.917343 147.788818,180.986664 
	C147.525879,178.991104 147.262939,176.995560 146.955643,174.658966 
	C146.607529,172.212143 146.303772,170.106384 146.375000,168.000580 
	C147.500000,168.000580 148.250000,168.000595 149.070160,168.347229 
	C151.860947,170.021637 154.479965,171.671814 157.335434,172.571869 
	C159.491425,173.251465 162.209366,173.681030 164.211197,172.948486 
	C167.033005,171.915863 169.424133,169.706360 172.467957,168.000031 
	C179.624146,168.000198 186.311768,168.000397 193.049500,168.369812 
	C194.353088,170.462418 195.606552,172.185822 196.860031,173.909210 
	C198.311783,172.535126 199.805298,171.201248 201.190201,169.762787 
	C201.613632,169.322983 201.738831,168.596039 202.417175,168.000580 
	C204.222290,168.000565 205.610840,168.000595 207.047516,168.363678 
	C208.728607,173.153320 210.361557,177.579880 211.623230,182.006790 
	C209.834824,182.339310 208.417725,182.671509 206.998749,182.610275 
	C205.692276,180.657639 204.654022,178.571777 202.987183,177.728790 
	C201.918488,177.188278 199.923065,178.480164 198.343079,178.950653 
	C199.306122,180.270935 200.023514,181.963562 201.301392,182.806656 
	C202.576279,183.647736 204.412796,183.637558 205.864975,184.322632 
	C205.712357,185.594513 205.352371,186.738052 205.754089,187.454498 
	C206.634842,189.025192 207.718704,191.307800 209.059830,191.571854 
	C210.521652,191.859665 213.034897,190.593155 213.836746,189.253952 
	C214.482437,188.175537 213.295624,185.970932 212.854507,184.283600 
	C212.650330,183.502609 212.285721,182.763565 212.361282,182.052856 
	C214.237579,182.051300 216.437866,182.574051 217.074615,181.803970 
	C217.815964,180.907379 217.288818,178.869171 217.134766,177.344315 
	C216.819473,174.223419 216.385635,171.114471 216.428986,168.000565 
	C218.571365,168.000549 220.285385,168.000580 221.999619,168.385300 
	C222.333130,170.179993 222.666397,171.589996 222.999786,173.333328 
	C222.999939,174.111099 222.999969,174.555557 222.783371,175.183044 
	C223.044495,176.243866 223.522247,177.121628 224.336655,178.149231 
	C226.115540,178.532730 227.557770,178.766357 229.145172,179.315567 
	C232.130035,183.939224 233.385162,183.963364 236.784424,179.473190 
	C234.489212,178.298187 232.244614,177.149094 229.999573,175.637100 
	C229.666107,174.182800 229.333054,173.091400 229.000000,171.625000 
	C229.000000,170.500000 229.000000,169.750000 229.399994,169.000000 
	C230.866653,169.000000 231.933334,169.000000 233.207336,169.266861 
	C238.949188,176.538757 239.217773,176.524933 243.739944,168.936142 
	C243.899841,168.667801 243.916946,168.314377 244.428986,168.000580 
	C246.571365,168.000580 248.285385,168.000595 250.067139,168.340759 
	C252.057404,170.466019 253.073380,175.908890 256.271301,172.891861 
	C259.995422,169.378403 263.700409,170.468689 267.562439,169.925598 
	C269.101410,169.709183 270.524292,168.666916 272.416656,168.000580 
	C274.222198,168.000565 275.611115,168.000595 277.072601,168.350388 
	C281.493164,174.897430 282.183746,174.842880 286.399994,168.000580 
	C287.866669,168.000580 288.933319,168.000595 290.070740,168.347198 
	C295.299896,175.291779 302.012573,174.978607 305.399994,168.000580 
	C306.866669,168.000580 307.933319,168.000595 309.061951,168.331543 
	C310.393311,169.764282 311.662720,170.866089 313.397827,172.372116 
	C314.123230,170.392899 314.561615,169.196747 315.428467,168.000580 
	C317.571289,168.000565 319.285645,168.000580 321.000000,168.420441 
	C322.356354,174.673767 317.846313,176.955032 313.975952,179.993027 
	C315.837006,180.444717 317.193359,180.113235 318.569672,179.955582 
	C321.834198,179.581619 325.102966,179.166656 328.380981,179.027863 
	C329.636993,178.974686 330.953125,179.972168 332.186768,179.863739 
	C333.438232,179.753754 334.621674,178.869690 335.834900,178.324646 
	C334.891541,177.231705 334.053345,175.325546 332.986511,175.187653 
	C328.550232,174.614166 327.319489,171.782761 327.444153,168.000565 
	C330.258881,168.000549 332.629425,168.000580 335.070831,168.348083 
	C337.044373,173.337479 340.132141,175.182785 345.073181,173.094223 
	C345.912262,172.739548 347.017639,173.015045 348.375000,172.999634 
	C349.500000,172.999908 350.250000,172.999954 351.269958,173.258453 
	C353.807495,174.295074 356.857269,174.407654 358.193604,175.978180 
	C361.962006,180.407013 366.217560,180.805267 371.103943,178.930710 
	C372.502350,178.394241 373.996674,177.405945 374.753845,176.192352 
	C375.139893,175.573578 374.215912,173.226181 373.487152,173.012253 
	C371.955627,172.562668 369.850037,172.444778 368.529541,173.178955 
	C362.561523,176.497208 360.531250,175.610199 360.467712,169.000000 
	C367.394226,169.194901 373.853058,169.389801 380.420685,169.587982 
	C380.312225,168.649155 380.128845,167.061707 380.411133,165.383636 
	C386.934692,165.353668 392.992584,165.414322 399.041168,165.903198 
	C400.399628,168.115494 401.688629,169.968628 403.167236,171.655594 
	C403.950867,172.549652 405.069824,173.737076 406.026489,173.727234 
	C406.985321,173.717377 407.882751,172.309937 408.893127,171.645905 
	C410.323456,170.705826 411.743408,169.507629 413.335876,169.131729 
	C414.657715,168.819702 416.226044,169.780807 417.678802,169.758759 
	C430.894318,169.558197 444.107697,169.197266 457.323547,169.053650 
	C460.210663,169.022278 463.105103,169.670639 465.996185,170.005951 
M371.657745,184.521332 
	C371.103577,184.332855 370.549377,184.144363 369.863129,183.300735 
	C367.010986,181.857498 366.593872,182.088623 364.517822,186.418304 
	C365.016541,187.283188 365.515259,188.148071 366.415741,189.245224 
	C366.666809,189.438354 366.855530,189.680145 367.118225,190.652405 
	C369.117218,193.203842 370.604553,191.894394 371.998779,189.998672 
	C371.998779,189.998672 372.003296,190.014313 372.510925,189.523346 
	C372.341553,188.010681 372.172180,186.498001 371.998779,185.001221 
	C371.998779,185.001221 372.014923,184.997696 371.657745,184.521332 
M278.086029,182.306961 
	C277.756073,181.074295 277.755005,179.091583 277.024902,178.771393 
	C275.673523,178.178772 272.837891,178.009369 272.507751,178.644562 
	C271.738831,180.124008 272.090637,182.185928 271.309418,183.920364 
	C268.848450,181.607544 266.425598,182.994431 264.015411,183.260117 
	C263.634949,181.376251 263.640533,179.249161 262.682861,177.728943 
	C262.302948,177.125900 259.183716,177.301590 258.390747,178.141495 
	C257.361328,179.231827 257.408539,181.338638 256.275787,182.914703 
	C255.806244,182.763260 255.193130,182.342285 254.890167,182.503632 
	C252.747482,183.644791 250.465103,184.681625 248.706619,186.279343 
	C248.245117,186.698608 249.059189,189.688293 250.013428,190.238556 
	C251.631393,191.171509 254.582016,192.041214 255.594406,191.226028 
	C256.959778,190.126633 257.127899,187.430176 257.581329,185.368805 
	C257.737427,184.659180 257.208252,183.798828 257.686523,183.087585 
	C259.127106,183.729309 260.567719,184.371033 262.008850,185.787582 
	C262.085846,189.511871 263.940277,191.916153 267.678925,191.893265 
	C271.770996,191.868240 272.160553,188.730911 272.005341,185.503525 
	C271.981476,185.007339 271.993011,184.509445 272.764221,184.001648 
	C274.511932,183.669739 276.259613,183.337845 277.901459,183.757355 
	C276.767212,186.561768 276.391815,189.431839 279.493317,191.031494 
	C280.835449,191.723740 284.162201,191.549164 284.305573,191.076340 
	C284.981506,188.847412 284.866669,186.378723 285.818024,183.994537 
	C288.970459,183.519028 292.433533,183.581070 294.238495,178.041092 
	C290.724792,178.455582 288.013428,178.598816 285.431702,179.253326 
	C284.999908,179.362793 285.130707,181.691345 284.294830,182.911133 
	C282.198517,182.943253 280.102203,182.975388 278.086029,182.306961 
M430.288971,183.905136 
	C428.528198,183.272659 426.767395,182.640167 425.000946,181.162628 
	C424.991943,180.666687 425.041840,180.161362 424.964722,179.676254 
	C424.273651,175.330048 420.978119,176.987885 418.798309,177.471451 
	C417.749512,177.704117 416.172943,180.407761 416.540009,181.246353 
	C417.564362,183.586823 419.628082,184.482513 422.165588,182.614120 
	C422.876556,182.090622 424.047546,182.191956 424.859985,182.704056 
	C424.321198,183.300980 423.379822,183.859207 423.318054,184.501968 
	C423.122223,186.540497 422.446930,189.451492 423.477905,190.441879 
	C424.603485,191.523117 427.701569,191.500275 429.449036,190.775421 
	C432.523590,189.500092 431.907288,186.613419 431.828979,184.001602 
	C433.222473,184.003738 434.615997,184.005859 436.006866,184.843658 
	C436.032349,186.007782 435.617371,187.489700 436.178467,188.267365 
	C437.224792,189.717560 439.003418,191.887131 440.179291,191.715500 
	C442.140472,191.429245 444.306824,189.843323 445.478882,188.168991 
	C445.956879,187.486145 444.357330,184.111084 443.187500,183.779480 
	C440.992249,183.157242 438.421844,183.858551 436.093384,183.314758 
	C436.626801,182.157303 437.160217,180.999863 438.134308,178.886139 
	C434.848175,178.568420 432.173004,178.309784 428.682404,177.972290 
	C429.743988,180.743439 430.369171,182.375366 430.288971,183.905136 
M76.999496,182.184814 
	C76.965202,181.359695 77.229240,180.019455 76.845718,179.797348 
	C75.043762,178.753738 73.104401,177.556763 71.128960,177.383148 
	C70.260284,177.306839 69.188919,179.536865 68.209587,180.719742 
	C69.821182,181.479599 71.387650,182.370865 73.062675,182.946014 
	C73.951561,183.251251 75.028816,183.007919 75.900612,183.776962 
	C76.090790,186.063019 75.521935,188.970032 76.718567,190.432709 
	C77.626602,191.542648 80.969887,191.343002 82.857811,190.675186 
	C83.776154,190.350327 84.730087,187.069275 84.120361,186.089737 
	C82.652023,183.730820 80.788391,180.672836 76.999496,182.184814 
M60.919155,184.700699 
	C60.723232,185.503159 60.092869,186.628311 60.407341,187.051682 
	C61.700378,188.792557 63.043568,191.136429 64.833656,191.656342 
	C66.160393,192.041702 69.710968,189.819641 69.637146,188.994797 
	C69.445160,186.849625 68.133873,184.515900 66.590919,182.908447 
	C65.874908,182.162506 63.582069,182.930130 62.085392,182.310410 
	C63.235207,179.630997 62.414848,177.490402 59.583950,177.284119 
	C57.953876,177.165329 56.205360,178.671844 54.510159,179.446777 
	C55.916870,180.666885 57.275959,181.949341 58.752853,183.077591 
	C59.376102,183.553711 60.247639,183.704819 60.919155,184.700699 
M343.307129,183.911728 
	C342.851379,183.718521 342.331268,183.609619 341.950104,183.318695 
	C339.077942,181.126633 336.865997,183.020508 335.858948,185.138611 
	C335.151245,186.627136 335.753418,190.330490 336.646698,190.658447 
	C338.535767,191.351929 341.592316,191.209229 343.039642,190.026413 
	C344.214142,189.066574 343.738953,186.088074 344.731171,183.984955 
	C346.489594,183.992966 348.247986,184.000977 349.908539,184.729996 
	C348.159821,188.279480 349.939667,190.783966 353.015717,191.577271 
	C354.609070,191.988190 357.701385,190.611267 358.521545,189.148056 
	C360.169769,186.207581 358.024231,183.898743 355.404877,182.393417 
	C354.750000,182.017059 353.814270,182.129456 352.895874,181.278580 
	C349.932831,177.123367 346.962952,176.758301 342.472046,180.004211 
	C342.979797,181.337570 343.487549,182.670929 343.307129,183.911728 
M394.085419,182.319397 
	C395.147034,179.897018 394.620544,177.723129 391.968964,177.394684 
	C390.550385,177.218948 388.913208,178.807785 387.374695,179.600296 
	C388.625092,180.789139 389.784607,182.101135 391.162170,183.117645 
	C391.910797,183.670059 393.030151,183.720078 393.866333,184.649597 
	C393.866241,186.522690 393.119385,189.121796 394.055511,190.084702 
	C395.220062,191.282532 398.041412,191.888077 399.646362,191.324081 
	C400.983063,190.854324 402.208313,188.395126 402.398468,186.695740 
	C402.754761,183.511292 398.687439,181.853607 394.085419,182.319397 
M176.735153,173.932663 
	C175.402069,174.573425 173.695953,174.901093 172.829468,175.933472 
	C171.723404,177.251266 171.295380,179.138153 170.575119,180.779755 
	C172.239838,180.515732 174.220566,180.736664 175.509872,179.896530 
	C179.333740,177.404816 182.778351,177.392487 186.552841,179.966415 
	C187.692902,180.743866 189.494614,180.551102 190.993240,180.802750 
	C190.464035,178.958572 190.318542,175.788651 189.337753,175.504791 
	C185.538895,174.405334 181.474014,174.224976 176.735153,173.932663 
M161.958374,189.587265 
	C162.865479,190.284103 163.798523,191.591003 164.674438,191.553772 
	C166.639252,191.470306 169.767578,191.229370 170.243057,190.119217 
	C170.948380,188.472427 170.316391,185.681427 169.275009,183.974594 
	C166.967941,180.193298 164.467178,184.626862 161.970657,184.298874 
	C161.764862,185.915680 161.559082,187.532486 161.958374,189.587265 
M31.660856,188.977875 
	C33.956524,192.085266 37.047100,193.461166 39.914661,190.528198 
	C40.931973,189.487701 40.466293,185.699844 39.340298,184.118301 
	C36.586029,180.249725 33.421841,181.986115 31.660856,188.977875 
M53.847328,183.821381 
	C51.260509,181.221375 48.572445,182.283875 47.220268,184.679535 
	C46.449043,186.045914 47.088787,189.422165 48.290951,190.363068 
	C49.612881,191.397705 52.741978,191.438263 54.311546,190.548996 
	C57.007416,189.021652 56.553104,186.470016 53.847328,183.821381 
M243.761292,188.166550 
	C242.952164,186.709274 242.474350,184.552429 241.249741,183.972504 
	C239.732269,183.253876 236.650650,183.114288 235.943527,184.032654 
	C234.820160,185.491592 234.291580,188.435760 235.058975,189.985184 
	C235.631332,191.140823 238.656555,191.458511 240.572586,191.414551 
	C241.546906,191.392197 242.484055,189.748810 243.761292,188.166550 
M226.803589,190.864182 
	C231.986938,189.243103 229.174438,185.760223 227.728806,183.927582 
	C223.616501,178.714432 222.118469,185.367157 219.188370,185.890472 
	C220.464676,190.974777 220.464676,190.974777 226.803589,190.864182 
M410.885651,182.593811 
	C409.697418,184.219788 407.376282,186.037582 407.610809,187.422684 
	C407.896942,189.112732 410.124084,191.157120 411.907318,191.668365 
	C413.077789,192.003937 416.315704,189.766083 416.233459,188.910995 
	C416.035065,186.848358 414.497345,184.880768 413.341217,182.970764 
	C413.092255,182.559418 412.175049,182.552551 410.885651,182.593811 
M314.295837,190.982330 
	C316.847656,187.592422 316.052124,184.897339 312.554230,182.816483 
	C309.247040,180.849045 307.973419,183.565704 307.040527,185.689651 
	C306.498932,186.922806 306.707886,189.633667 307.480042,190.064392 
	C309.262482,191.058640 311.594299,191.068039 314.295837,190.982330 
M133.075638,189.201248 
	C134.678604,192.542953 137.601212,192.971268 139.986267,190.996994 
	C141.200714,189.991699 141.354050,186.885971 140.902161,184.987991 
	C140.623611,183.817993 138.300003,183.134857 136.894562,182.233139 
	C135.599243,184.290176 134.303925,186.347214 133.075638,189.201248 
M327.970062,183.530807 
	C326.070587,183.529816 323.119019,182.798004 322.501343,183.687317 
	C321.382751,185.297745 321.097015,188.013062 321.586060,189.989349 
	C321.826904,190.962646 324.598938,191.893478 326.183929,191.828476 
	C329.458130,191.694138 330.339996,188.326187 327.970062,183.530807 
M458.376709,183.111099 
	C455.547211,181.028244 452.976257,182.042831 451.911316,184.747711 
	C451.263641,186.392792 452.019348,189.101654 453.085938,190.707474 
	C453.671173,191.588531 456.745392,191.921249 457.762604,191.193924 
	C460.343018,189.348862 460.615143,186.541367 458.376709,183.111099 
M387.945465,186.764374 
	C386.462006,183.840744 384.620728,181.043701 380.955933,183.321152 
	C379.669403,184.120636 378.530823,186.765091 378.889160,188.167267 
	C379.272552,189.667328 381.869476,191.951385 382.847137,191.664825 
	C384.793549,191.094345 386.292542,188.997269 387.945465,186.764374 
M292.480072,185.296860 
	C291.455353,188.199860 291.931702,190.933136 295.066742,191.620438 
	C296.665253,191.970886 299.492950,190.818283 300.297760,189.469528 
	C301.025299,188.250214 300.295135,185.440521 299.255035,184.039307 
	C297.185364,181.251099 294.798950,182.000565 292.480072,185.296860 
M191.233994,185.141708 
	C191.165436,185.955612 190.737015,187.018173 191.095505,187.537003 
	C192.189056,189.119736 193.367950,191.271667 194.931290,191.708893 
	C196.254456,192.078979 199.457703,190.478088 199.534058,189.558838 
	C199.689529,187.686890 198.655869,185.423325 197.462997,183.797363 
	C195.407349,180.995331 193.530029,183.630295 191.233994,185.141708 
M155.939651,189.366379 
	C155.623672,187.579941 155.805573,185.410385 154.824661,184.135620 
	C154.117249,183.216278 151.458298,182.773026 150.382996,183.380310 
	C148.278229,184.569016 145.444504,186.179169 148.046844,189.494965 
	C150.378082,192.465332 152.784515,192.787292 155.939651,189.366379 
M178.997940,191.805313 
	C180.978409,190.855896 184.442490,190.105011 184.602127,188.911972 
	C184.861099,186.976456 182.953888,184.751114 181.961151,182.648102 
	C180.485168,183.364395 178.707443,183.772507 177.595856,184.860931 
	C175.260971,187.147141 175.484650,189.544739 178.997940,191.805313 
M95.788574,191.559921 
	C96.550972,190.963074 97.583221,190.514603 98.012177,189.734421 
	C98.646820,188.580170 99.556297,186.455551 99.115013,186.033234 
	C97.544037,184.529739 95.552277,183.050201 93.508148,182.654190 
	C92.648026,182.487564 90.560455,184.901535 90.252426,186.394424 
	C89.532166,189.885254 91.080765,192.134491 95.788574,191.559921 
M246.093643,178.044083 
	C244.245590,178.044083 242.397537,178.044083 240.549484,178.044083 
	C240.414352,178.508331 240.279221,178.972595 240.144089,179.436844 
	C241.539185,180.671097 242.763275,182.495102 244.380295,182.963943 
	C245.825714,183.382996 247.704620,182.306854 249.392258,181.890472 
	C248.557571,180.645859 247.722885,179.401260 246.093643,178.044083 
M31.778208,173.268082 
	C29.829369,174.794449 27.952349,176.635147 30.584976,178.768036 
	C31.593132,179.584839 34.559658,179.673279 35.272530,178.876190 
	C38.525608,175.238800 34.830406,174.409821 31.778208,173.268082 
M163.485870,179.445175 
	C160.232697,177.203247 157.195541,177.233551 153.915344,179.888779 
	C157.532654,184.166168 160.540482,182.964920 163.485870,179.445175 
M444.693176,178.714966 
	C444.713043,179.852661 444.506226,181.906418 444.790222,181.976700 
	C446.415100,182.378769 448.214264,182.595123 449.832214,182.269012 
	C450.549255,182.124466 450.979828,180.558929 451.540405,179.638428 
	C450.450958,179.096725 449.409637,178.348877 448.256592,178.079834 
	C447.366150,177.872055 446.335602,178.264709 444.693176,178.714966 
M402.109924,181.545822 
	C405.141357,184.239044 406.922729,182.236923 409.535919,179.211884 
	C407.443939,178.435730 405.795227,177.213913 404.547577,177.537674 
	C403.368195,177.843719 402.610199,179.773529 402.109924,181.545822 
M83.394798,180.414474 
	C84.049690,181.123413 84.604584,182.257156 85.383217,182.440475 
	C86.515297,182.706970 88.048149,182.645676 88.951782,182.040192 
	C89.588135,181.613754 89.990067,179.627670 89.558983,179.090561 
	C88.842644,178.198029 87.326141,177.410507 86.234482,177.513138 
	C85.219185,177.608566 84.318558,178.923904 83.394798,180.414474 
z"/>
<path fill="#F3E5DA" opacity="1.000000" stroke="none" 
	d="
M414.958496,455.977356 
	C407.540863,458.074097 400.206085,460.563019 392.681244,462.152008 
	C385.792999,463.606628 378.693481,464.046478 371.699951,465.025513 
	C369.621521,465.316467 367.586609,465.918457 364.802185,466.672699 
	C285.043671,466.958038 206.014755,466.948578 126.985825,466.939148 
	C125.679893,466.316559 124.392090,465.204773 123.064896,465.155579 
	C117.140556,464.935944 111.187134,465.275574 105.282516,464.863922 
	C103.024330,464.706482 100.914658,462.951599 98.657791,462.148010 
	C90.040810,459.079681 81.391426,456.102325 72.136032,453.036743 
	C71.348351,452.985107 71.178780,452.987762 71.009216,452.990387 
	C71.009216,452.990387 71.000000,453.000000 70.942917,452.660767 
	C67.928185,450.213440 64.970543,448.105316 62.012894,445.997223 
	C62.012894,445.997223 62.001701,445.998779 61.884014,445.781281 
	C61.566498,445.300720 61.316425,445.100311 61.016113,444.962616 
	C58.045635,441.576416 55.117073,438.152252 52.091747,434.815796 
	C49.555511,432.018707 46.906380,429.324005 43.994514,425.991180 
	C41.787304,422.600006 39.892807,419.801666 38.143311,416.687439 
	C40.528351,414.260681 42.768394,412.149780 45.451599,410.031189 
	C48.260334,410.027618 50.625900,410.031677 53.108242,410.416779 
	C55.239826,411.198425 57.254345,411.947632 59.269478,411.949280 
	C132.312744,412.009399 205.356094,412.000061 278.399414,411.999939 
	C329.843903,411.999878 381.288422,411.989929 432.732910,412.021332 
	C435.877106,412.023254 439.052063,412.688263 442.154175,412.404755 
	C444.160339,412.221405 446.059814,410.871277 448.338104,410.039062 
	C449.110443,410.037476 449.551788,410.040833 450.059387,410.363708 
	C451.420593,411.789215 452.715485,412.895203 454.010376,414.001221 
	C453.752075,420.494232 448.642151,424.291656 445.556885,429.213806 
	C444.711639,430.562286 443.857330,431.905121 442.663696,433.666809 
	C441.535614,435.053589 440.751007,436.024048 439.966400,436.994507 
	C439.070038,437.806213 438.173676,438.617920 436.877747,439.836426 
	C435.982574,440.826874 435.486938,441.410522 434.991333,441.994171 
	C434.991333,441.994171 435.000000,442.000000 434.646301,442.039734 
	C431.193542,444.714172 428.094452,447.348877 424.995361,449.983643 
	C424.995392,449.983643 424.998779,449.997559 424.631958,449.999481 
	C423.174591,450.995453 422.084076,451.989502 420.993530,452.983582 
	C420.993530,452.983551 420.998383,452.996399 420.777710,453.111694 
	C420.293762,453.431122 420.098969,453.687408 419.972748,453.995789 
	C419.972748,453.995789 419.495422,453.990540 418.959106,454.016663 
	C417.946228,454.360107 417.469666,454.677429 416.993103,454.994751 
	C416.993103,454.994751 417.000000,455.000000 416.701904,455.024384 
	C415.922058,455.358307 415.440277,455.667847 414.958496,455.977356 
z"/>
<path fill="#987959" opacity="1.000000" stroke="none" 
	d="
M28.198629,165.321838 
	C27.015755,165.450760 25.832880,165.579681 24.552612,165.994263 
	C23.803478,163.685883 23.151737,161.091827 22.676929,158.205841 
	C24.603548,162.240646 27.868311,163.121307 32.342201,163.117706 
	C173.856918,163.004242 315.371765,163.022491 456.886566,163.021347 
	C466.987488,163.021255 466.987488,163.023361 468.783875,153.245621 
	C470.543060,157.535965 469.975861,161.666931 465.691956,165.345703 
	C443.037476,165.539322 421.043976,165.507141 399.050476,165.474976 
	C392.992584,165.414322 386.934692,165.353668 379.956940,165.305099 
	C311.775330,165.304276 244.513580,165.289612 177.251831,165.286423 
	C175.093307,165.286331 172.934784,165.403778 170.390350,165.397583 
	C168.671097,165.503708 167.337753,165.678650 165.675964,165.773376 
	C164.897949,165.694672 164.448380,165.696182 163.551331,165.553436 
	C158.766891,165.432266 154.429962,165.455383 149.625473,165.386810 
	C108.838165,165.304016 68.518394,165.312927 28.198629,165.321838 
z"/>
<path fill="#DCDFD4" opacity="1.000000" stroke="none" 
	d="
M25.667469,242.060715 
	C171.365509,242.003036 316.723846,242.011627 462.546051,242.396835 
	C463.012604,243.505219 463.015289,244.236969 462.547424,244.979492 
	C316.415680,244.997070 170.754501,245.003891 24.823448,245.009232 
	C24.373667,245.010178 24.193762,245.012619 24.013863,245.015045 
	C24.451828,244.052353 24.889793,243.089661 25.667469,242.060715 
z"/>
<path fill="#DCDFD4" opacity="1.000000" stroke="none" 
	d="
M454.000000,327.005768 
	C321.100769,327.005890 188.201523,326.984894 55.302330,327.049438 
	C45.514400,327.054199 35.726776,327.676178 25.242979,328.008484 
	C24.369343,328.008942 24.191738,328.012177 24.014132,328.015411 
	C24.010429,327.258789 24.006729,326.502167 24.342480,325.372009 
	C25.130058,324.998566 25.578188,324.998657 26.492283,324.995605 
	C169.309860,325.001740 311.661469,325.011017 454.009705,325.351196 
	C454.004272,326.123291 454.002136,326.564545 454.000000,327.005768 
z"/>
<path fill="#D5D9CE" opacity="1.000000" stroke="none" 
	d="
M52.991467,410.035736 
	C50.625900,410.031677 48.260334,410.027618 45.000923,410.019165 
	C41.404705,410.016541 38.702335,410.018341 35.999954,410.020142 
	C35.195736,409.475922 34.391518,408.931732 33.799934,408.178833 
	C173.605988,407.977814 313.199402,407.993805 452.792786,407.915924 
	C454.945923,407.914734 457.098389,406.754852 459.624451,406.034027 
	C459.217224,407.257172 458.436737,408.582001 456.885620,409.966064 
	C454.074402,410.031616 452.033752,410.037903 449.993134,410.044159 
	C449.551788,410.040833 449.110443,410.037476 447.868896,410.025787 
	C315.709625,410.023529 184.350540,410.029633 52.991467,410.035736 
z"/>
<path fill="#987959" opacity="1.000000" stroke="none" 
	d="
M417.963989,35.678158 
	C416.400085,35.477108 414.557648,35.220268 412.967072,34.446075 
	C400.519470,28.387409 387.112366,25.324522 373.561523,25.203039 
	C293.371399,24.484131 213.175934,24.100471 132.982727,24.165585 
	C112.897110,24.181894 93.027702,27.314299 74.068047,35.901989 
	C77.935020,33.771828 81.987762,30.743891 86.498581,29.705074 
	C97.952255,27.067354 109.541092,24.678749 121.208412,23.405685 
	C131.928482,22.235979 142.821243,22.423948 153.638519,22.407024 
	C215.762344,22.309826 277.887512,22.116566 340.009491,22.454351 
	C356.265625,22.542742 372.553070,23.992136 388.748138,25.601328 
	C399.016937,26.621662 408.872131,29.880161 417.963989,35.678158 
z"/>
<path fill="#D3D7CE" opacity="1.000000" stroke="none" 
	d="
M454.435791,327.007385 
	C454.002136,326.564545 454.004272,326.123291 454.470886,325.346161 
	C457.091400,325.007324 459.260681,324.850830 461.400238,325.036835 
	C464.762939,325.329132 466.087555,324.177216 466.068604,320.590210 
	C465.942291,296.709442 465.997009,272.827667 466.020721,248.946243 
	C466.022858,246.790848 465.946808,244.842392 463.017975,244.968735 
	C463.015289,244.236969 463.012604,243.505219 463.015930,242.408875 
	C463.765717,242.033676 464.509521,242.023071 465.625427,242.004395 
	C466.665588,243.310455 467.910400,244.621964 467.916351,245.939072 
	C468.031525,271.432861 468.000793,296.927307 468.002380,322.421600 
	C468.003174,334.871826 468.054810,347.322449 467.957397,359.771881 
	C467.944244,361.447876 467.191101,363.118042 466.390320,364.892395 
	C466.001404,355.053558 465.712189,345.101135 466.126129,335.178009 
	C466.334564,330.181488 465.353210,327.261261 459.796021,327.401703 
	C458.158875,327.443054 456.513306,327.149231 454.435791,327.007385 
z"/>
<path fill="#C9D1C6" opacity="1.000000" stroke="none" 
	d="
M127.286194,467.234253 
	C206.014755,466.948578 285.043671,466.958038 364.542725,466.953583 
	C363.285095,467.291290 361.557526,467.949219 359.829529,467.950409 
	C283.888611,468.002563 207.947678,467.999329 132.006729,467.978302 
	C130.533310,467.977875 129.059952,467.685486 127.286194,467.234253 
z"/>
<path fill="#F5E5DC" opacity="1.000000" stroke="none" 
	d="
M399.041168,165.903198 
	C421.043976,165.507141 443.037476,165.539322 465.492126,165.600616 
	C465.967316,166.799316 465.981354,167.968918 465.995789,169.572235 
	C463.105103,169.670639 460.210663,169.022278 457.323547,169.053650 
	C444.107697,169.197266 430.894318,169.558197 417.678802,169.758759 
	C416.226044,169.780807 414.657715,168.819702 413.335876,169.131729 
	C411.743408,169.507629 410.323456,170.705826 408.893127,171.645905 
	C407.882751,172.309937 406.985321,173.717377 406.026489,173.727234 
	C405.069824,173.737076 403.950867,172.549652 403.167236,171.655594 
	C401.688629,169.968628 400.399628,168.115494 399.041168,165.903198 
z"/>
<path fill="#987959" opacity="1.000000" stroke="none" 
	d="
M469.231750,149.680023 
	C468.718994,149.144821 468.068939,148.231720 468.096436,147.339508 
	C468.655579,129.227402 466.988251,111.319603 463.554382,93.305870 
	C465.368927,100.401749 467.745026,107.708656 468.385864,115.164711 
	C469.359436,126.492752 469.128937,137.924271 469.231750,149.680023 
z"/>
<path fill="#CAD2C8" opacity="1.000000" stroke="none" 
	d="
M26.026318,324.998779 
	C25.578188,324.998657 25.130058,324.998566 24.346062,324.993713 
	C24.008331,298.642303 24.006470,272.295654 24.009233,245.482025 
	C24.193762,245.012619 24.373667,245.010178 24.813148,245.402557 
	C25.061367,252.975128 24.954426,260.154266 25.057114,267.330383 
	C25.332195,286.553894 25.697096,305.776062 26.026318,324.998779 
z"/>
<path fill="#987959" opacity="1.000000" stroke="none" 
	d="
M445.631714,58.773746 
	C441.965149,56.059139 438.287598,53.021049 434.629456,49.959736 
	C429.442657,45.619171 424.270203,41.261501 418.997131,36.597656 
	C429.721954,41.364895 438.120697,49.365524 445.631714,58.773746 
z"/>
<path fill="#987959" opacity="1.000000" stroke="none" 
	d="
M24.009003,115.354294 
	C24.161783,118.401405 24.097881,121.788261 24.073090,125.175415 
	C24.022070,132.145721 24.024532,139.116623 23.930901,146.086273 
	C23.906748,147.884109 23.607687,149.678238 23.143221,151.787292 
	C23.171032,139.965073 23.490530,127.829620 24.009003,115.354294 
z"/>
<path fill="#CAD2C8" opacity="1.000000" stroke="none" 
	d="
M24.008671,328.482483 
	C24.191738,328.012177 24.369343,328.008942 24.814369,328.007080 
	C25.373569,340.024109 25.665348,352.039703 25.951984,364.484314 
	C25.296825,363.459839 24.105652,362.014587 24.083469,360.551636 
	C23.923767,350.019623 24.001072,339.484009 24.008671,328.482483 
z"/>
<path fill="#987959" opacity="1.000000" stroke="none" 
	d="
M28.937992,89.278931 
	C28.742525,92.018349 28.398178,95.029579 27.797487,97.988770 
	C26.994461,101.944740 25.992615,105.860344 24.745342,109.956024 
	C25.834684,103.255043 27.254827,96.391304 28.937992,89.278931 
z"/>
<path fill="#E9EBE0" opacity="1.000000" stroke="none" 
	d="
M35.885872,410.271332 
	C38.702335,410.018341 41.404705,410.016541 44.557755,410.026794 
	C42.768394,412.149780 40.528351,414.260681 37.895275,416.685730 
	C37.502243,416.999817 37.006138,416.996826 37.006138,416.996826 
	C37.006138,416.996826 37.000153,417.000000 36.963634,416.650879 
	C36.286289,414.864319 35.645462,413.426880 35.004635,411.989441 
	C35.260345,411.500458 35.516064,411.011505 35.885872,410.271332 
z"/>
<path fill="#987959" opacity="1.000000" stroke="none" 
	d="
M46.562511,57.765617 
	C43.878738,62.063896 40.877480,66.505577 37.556450,71.036110 
	C40.239460,66.719650 43.242245,62.314335 46.562511,57.765617 
z"/>
<path fill="#987959" opacity="1.000000" stroke="none" 
	d="
M36.599255,71.867752 
	C34.655991,76.759468 32.399860,81.806396 29.854258,86.992386 
	C31.805321,82.095284 34.045856,77.059120 36.599255,71.867752 
z"/>
<path fill="#DCDFD4" opacity="1.000000" stroke="none" 
	d="
M425.359863,449.982147 
	C428.094452,447.348877 431.193542,444.714172 434.643250,442.034485 
	C431.904053,444.653290 428.814240,447.316986 425.359863,449.982147 
z"/>
<path fill="#DCDFD4" opacity="1.000000" stroke="none" 
	d="
M37.011024,417.372986 
	C37.006138,416.996826 37.502243,416.999817 37.750278,417.001556 
	C39.892807,419.801666 41.787304,422.600006 43.837982,425.694916 
	C38.712200,425.746582 38.204983,421.459229 37.011024,417.372986 
z"/>
<path fill="#DCDFD4" opacity="1.000000" stroke="none" 
	d="
M62.051041,446.342468 
	C64.970543,448.105316 67.928185,450.213440 70.947433,452.654785 
	C68.035759,450.887939 65.062477,448.787842 62.051041,446.342468 
z"/>
<path fill="#E9EBE0" opacity="1.000000" stroke="none" 
	d="
M450.059387,410.363708 
	C452.033752,410.037903 454.074402,410.031616 456.551208,410.039978 
	C456.201050,411.273590 455.414673,412.492523 454.319336,413.856354 
	C452.715485,412.895203 451.420593,411.789215 450.059387,410.363708 
z"/>
<path fill="#987959" opacity="1.000000" stroke="none" 
	d="
M463.489319,90.750015 
	C462.295746,88.315811 461.175323,85.508835 460.044281,82.317688 
	C461.209961,84.748085 462.386230,87.562660 463.489319,90.750015 
z"/>
<path fill="#987959" opacity="1.000000" stroke="none" 
	d="
M72.760208,36.221786 
	C71.323265,37.453072 69.538559,38.712513 67.397888,40.007599 
	C68.832100,38.778816 70.622276,37.514381 72.760208,36.221786 
z"/>
<path fill="#987959" opacity="1.000000" stroke="none" 
	d="
M455.736603,72.777145 
	C454.514954,71.324036 453.280701,69.521042 452.017548,67.360504 
	C453.233765,68.811058 454.478882,70.619171 455.736603,72.777145 
z"/>
<path fill="#987959" opacity="1.000000" stroke="none" 
	d="
M460.052185,81.621017 
	C458.750702,79.758575 457.437439,77.529312 456.157349,74.910202 
	C457.473816,76.764977 458.757141,79.009590 460.052185,81.621017 
z"/>
<path fill="#987959" opacity="1.000000" stroke="none" 
	d="
M61.814568,43.429291 
	C60.890186,44.588379 59.640453,45.743996 58.036884,46.890354 
	C58.951771,45.729336 60.220490,44.577579 61.814568,43.429291 
z"/>
<path fill="#DCDFD4" opacity="1.000000" stroke="none" 
	d="
M34.761002,412.217255 
	C35.645462,413.426880 36.286289,414.864319 36.965019,416.647949 
	C36.174400,415.477783 35.345882,413.961426 34.761002,412.217255 
z"/>
<path fill="#987959" opacity="1.000000" stroke="none" 
	d="
M66.708023,40.093376 
	C65.882576,41.027321 64.723396,42.011463 63.188919,42.972412 
	C64.000511,42.014004 65.187393,41.078785 66.708023,40.093376 
z"/>
<path fill="#DCDFD4" opacity="1.000000" stroke="none" 
	d="
M421.321381,452.951172 
	C422.084076,451.989502 423.174591,450.995453 424.625244,449.997925 
	C423.873322,450.969238 422.761261,451.944000 421.321381,452.951172 
z"/>
<path fill="#987959" opacity="1.000000" stroke="none" 
	d="
M450.600342,64.809860 
	C449.736633,64.250198 448.895447,63.368797 448.055969,62.153679 
	C448.912689,62.709347 449.767792,63.598736 450.600342,64.809860 
z"/>
<path fill="#987959" opacity="1.000000" stroke="none" 
	d="
M49.777580,54.167320 
	C49.356266,55.072372 48.620049,56.036110 47.568161,57.066616 
	C47.989220,56.164257 48.725948,55.195133 49.777580,54.167320 
z"/>
<path fill="#987959" opacity="1.000000" stroke="none" 
	d="
M53.783936,50.200230 
	C53.320198,51.092472 52.540653,52.044907 51.434242,53.044136 
	C51.894291,52.147423 52.681206,51.203926 53.783936,50.200230 
z"/>
<path fill="#DCDFD4" opacity="1.000000" stroke="none" 
	d="
M440.306702,436.954468 
	C440.751007,436.024048 441.535614,435.053589 442.654602,434.035522 
	C442.208344,434.963440 441.427673,435.938965 440.306702,436.954468 
z"/>
<path fill="#987959" opacity="1.000000" stroke="none" 
	d="
M56.821011,47.358139 
	C56.643925,47.900921 56.170734,48.456367 55.407600,49.052925 
	C55.586742,48.519623 56.055824,47.945213 56.821011,47.358139 
z"/>
<path fill="#DCDFD4" opacity="1.000000" stroke="none" 
	d="
M415.146118,456.184082 
	C415.440277,455.667847 415.922058,455.358307 416.699158,455.019806 
	C416.440887,455.457520 415.887329,455.924164 415.146118,456.184082 
z"/>
<path fill="#DCDFD4" opacity="1.000000" stroke="none" 
	d="
M435.308075,441.944336 
	C435.486938,441.410522 435.982574,440.826874 436.737793,440.108154 
	C436.539825,440.613586 436.082336,441.254059 435.308075,441.944336 
z"/>
<path fill="#D5D9CE" opacity="1.000000" stroke="none" 
	d="
M460.239441,404.821045 
	C460.156952,404.178101 460.326019,403.310272 460.744690,402.219147 
	C460.826508,402.862610 460.658783,403.729370 460.239441,404.821045 
z"/>
<path fill="#DCDFD4" opacity="1.000000" stroke="none" 
	d="
M60.883430,445.122375 
	C61.316425,445.100311 61.566498,445.300720 61.882816,445.775879 
	C61.583122,445.752686 61.166935,445.517395 60.883430,445.122375 
z"/>
<path fill="#DCDFD4" opacity="1.000000" stroke="none" 
	d="
M417.289795,454.969147 
	C417.469666,454.677429 417.946228,454.360107 418.720459,454.016510 
	C418.540894,454.308014 418.063690,454.625763 417.289795,454.969147 
z"/>
<path fill="#DCDFD4" opacity="1.000000" stroke="none" 
	d="
M71.103203,453.142822 
	C71.178780,452.987762 71.348351,452.985107 71.772659,452.985352 
	C71.750656,453.090607 71.473923,453.192902 71.103203,453.142822 
z"/>
<path fill="#DCDFD4" opacity="1.000000" stroke="none" 
	d="
M420.188873,453.882050 
	C420.098969,453.687408 420.293762,453.431122 420.771851,453.112701 
	C420.869263,453.312866 420.675385,453.569489 420.188873,453.882050 
z"/>
<path fill="#987959" opacity="1.000000" stroke="none" 
	d="
M451.942627,66.744492 
	C451.725891,66.797974 451.456543,66.584290 451.106873,66.119705 
	C451.314392,66.071648 451.602203,66.274498 451.942627,66.744492 
z"/>
<path fill="#F5E5DC" opacity="1.000000" stroke="none" 
	d="
M170.776260,165.466415 
	C172.934784,165.403778 175.093307,165.286331 177.251831,165.286423 
	C244.513580,165.289612 311.775330,165.304276 379.491272,165.395721 
	C380.128845,167.061707 380.312225,168.649155 380.420685,169.587982 
	C373.853058,169.389801 367.394226,169.194901 360.045288,168.999725 
	C351.103455,168.666519 343.051727,168.333572 335.000000,168.000610 
	C332.629425,168.000580 330.258881,168.000549 327.015686,168.000366 
	C324.428711,168.000336 322.714355,168.000473 321.000000,168.000610 
	C319.285645,168.000580 317.571289,168.000565 315.000000,168.000366 
	C312.428711,168.000336 310.714355,168.000473 309.000000,168.000610 
	C307.933319,168.000595 306.866669,168.000580 304.933868,168.000366 
	C299.378510,168.000336 294.689240,168.000473 290.000000,168.000610 
	C288.933319,168.000595 287.866669,168.000580 285.950012,168.000366 
	C282.400024,168.000336 279.700012,168.000473 277.000000,168.000610 
	C275.611115,168.000595 274.222198,168.000565 271.948090,168.000366 
	C264.041718,168.000320 257.020538,168.000458 249.999390,168.000610 
	C248.285385,168.000595 246.571365,168.000580 243.976395,168.000381 
	C239.730286,168.333481 236.365143,168.666748 233.000000,169.000000 
	C231.933334,169.000000 230.866653,169.000000 229.001907,168.998413 
	C226.135681,168.664749 224.067535,168.332672 221.999390,168.000610 
	C220.285385,168.000580 218.571365,168.000549 215.978928,168.000366 
	C212.400131,168.000336 209.699753,168.000473 206.999390,168.000610 
	C205.610840,168.000595 204.222290,168.000565 201.967117,168.000366 
	C198.400131,168.000336 195.699753,168.000473 192.999390,168.000610 
	C186.311768,168.000397 179.624146,168.000198 172.323318,167.685303 
	C171.398834,166.735870 171.087555,166.101151 170.776260,165.466415 
z"/>
<path fill="#F5E5DC" opacity="1.000000" stroke="none" 
	d="
M28.159534,165.779175 
	C68.518394,165.312927 108.838165,165.304016 149.575684,165.749542 
	C149.662308,166.802856 149.331146,167.401733 149.000000,168.000610 
	C148.250000,168.000595 147.500000,168.000580 145.958344,168.000427 
	C143.777786,168.000381 142.388885,168.000488 141.000000,168.000610 
	C138.299988,168.000641 135.599976,168.000687 132.051910,168.002182 
	C129.135895,168.335953 127.067947,168.668289 125.000000,169.000610 
	C108.415909,169.203018 91.832214,169.498764 75.247566,169.567322 
	C67.299927,169.600174 59.349331,169.239334 51.402466,168.982559 
	C48.216610,168.879608 45.838680,169.120346 46.471836,173.489822 
	C46.661652,174.799774 44.972176,176.382034 44.143661,177.839539 
	C43.424511,176.438263 42.235474,175.088791 42.074219,173.626007 
	C41.587994,169.215271 38.626762,169.252243 35.284859,168.869919 
	C32.834789,168.589630 28.920355,171.253601 28.159534,165.779175 
z"/>
<path fill="#F5E4DA" opacity="1.000000" stroke="none" 
	d="
M335.070831,168.348099 
	C343.051727,168.333572 351.103455,168.666519 359.577576,168.999725 
	C360.531250,175.610199 362.561523,176.497208 368.529541,173.178955 
	C369.850037,172.444778 371.955627,172.562668 373.487152,173.012253 
	C374.215912,173.226181 375.139893,175.573578 374.753845,176.192352 
	C373.996674,177.405945 372.502350,178.394241 371.103943,178.930710 
	C366.217560,180.805267 361.962006,180.407013 358.193604,175.978180 
	C356.857269,174.407654 353.807495,174.295074 351.207794,172.936249 
	C349.917084,172.570190 348.958557,172.784790 348.000000,172.999390 
	C347.017639,173.015045 345.912262,172.739548 345.073181,173.094223 
	C340.132141,175.182785 337.044373,173.337479 335.070831,168.348099 
z"/>
<path fill="#F5E4DA" opacity="1.000000" stroke="none" 
	d="
M119.007172,184.003204 
	C117.289604,184.002548 115.572044,184.001892 113.427238,184.000641 
	C113.000000,184.000046 112.997093,184.004044 112.930283,183.667755 
	C111.908981,182.887848 110.954491,182.444229 110.000000,182.000305 
	C110.000000,182.000000 109.999695,182.000000 109.999695,182.000000 
	C108.893097,181.561081 107.620644,180.546783 106.715759,180.807617 
	C105.032425,181.292877 103.563271,182.521118 101.249710,183.885452 
	C100.307327,182.837265 99.172913,181.575500 97.198616,179.379547 
	C99.821136,178.757172 101.409630,178.080948 103.009674,178.052399 
	C109.836113,177.930573 116.667824,178.086380 123.493263,177.939209 
	C125.198471,177.902435 126.887489,177.114685 129.135254,176.295319 
	C130.791031,175.612366 131.895523,175.306183 133.000000,175.000000 
	C134.966019,179.781174 132.285156,182.542114 128.051178,184.801849 
	C125.938011,183.796921 124.466667,182.896988 122.715767,181.878296 
	C121.625404,182.175797 120.814606,182.592026 119.884666,183.217163 
	C119.564308,183.686188 119.311531,183.878571 119.007172,184.003204 
z"/>
<path fill="#F5E4DA" opacity="1.000000" stroke="none" 
	d="
M321.000000,168.420441 
	C322.714355,168.000473 324.428711,168.000336 326.571533,168.000397 
	C327.319489,171.782761 328.550232,174.614166 332.986511,175.187653 
	C334.053345,175.325546 334.891541,177.231705 335.834900,178.324646 
	C334.621674,178.869690 333.438232,179.753754 332.186768,179.863739 
	C330.953125,179.972168 329.636993,178.974686 328.380981,179.027863 
	C325.102966,179.166656 321.834198,179.581619 318.569672,179.955582 
	C317.193359,180.113235 315.837006,180.444717 313.975952,179.993027 
	C317.846313,176.955032 322.356354,174.673767 321.000000,168.420441 
z"/>
<path fill="#F3E5DA" opacity="1.000000" stroke="none" 
	d="
M149.070145,168.347229 
	C149.331146,167.401733 149.662308,166.802856 150.043243,165.841248 
	C154.429962,165.455383 158.766891,165.432266 163.585739,165.871918 
	C164.460968,166.703125 164.854294,167.071594 165.247620,167.440048 
	C165.499878,166.911224 165.752136,166.382416 166.004395,165.853577 
	C167.337753,165.678650 168.671097,165.503708 170.390350,165.397583 
	C171.087555,166.101151 171.398834,166.735870 171.854752,167.685333 
	C169.424133,169.706360 167.033005,171.915863 164.211197,172.948486 
	C162.209366,173.681030 159.491425,173.251465 157.335434,172.571869 
	C154.479965,171.671814 151.860947,170.021637 149.070145,168.347229 
z"/>
<path fill="#F5E4DA" opacity="1.000000" stroke="none" 
	d="
M177.121674,173.817505 
	C181.474014,174.224976 185.538895,174.405334 189.337753,175.504791 
	C190.318542,175.788651 190.464035,178.958572 190.993240,180.802734 
	C189.494614,180.551102 187.692902,180.743866 186.552841,179.966415 
	C182.778351,177.392487 179.333740,177.404816 175.509872,179.896530 
	C174.220566,180.736664 172.239838,180.515732 170.575119,180.779755 
	C171.295380,179.138153 171.723404,177.251266 172.829468,175.933472 
	C173.695953,174.901093 175.402069,174.573425 177.121674,173.817505 
z"/>
<path fill="#F5E4DA" opacity="1.000000" stroke="none" 
	d="
M207.047516,168.363678 
	C209.699753,168.000473 212.400131,168.000336 215.550568,168.000397 
	C216.385635,171.114471 216.819473,174.223419 217.134766,177.344315 
	C217.288818,178.869171 217.815964,180.907379 217.074615,181.803970 
	C216.437866,182.574051 214.237579,182.051300 212.364349,182.050110 
	C212.000000,182.000000 211.994507,182.006454 211.994507,182.006454 
	C210.361557,177.579880 208.728607,173.153320 207.047516,168.363678 
z"/>
<path fill="#DEE3D7" opacity="1.000000" stroke="none" 
	d="
M161.655823,189.368286 
	C161.559082,187.532486 161.764862,185.915680 161.970657,184.298874 
	C164.467178,184.626862 166.967941,180.193298 169.275009,183.974594 
	C170.316391,185.681427 170.948380,188.472427 170.243057,190.119217 
	C169.767578,191.229370 166.639252,191.470306 164.674438,191.553772 
	C163.798523,191.591003 162.865479,190.284103 161.655823,189.368286 
z"/>
<path fill="#DFE4D8" opacity="1.000000" stroke="none" 
	d="
M394.009247,183.017746 
	C398.687439,181.853607 402.754761,183.511292 402.398468,186.695740 
	C402.208313,188.395126 400.983063,190.854324 399.646362,191.324081 
	C398.041412,191.888077 395.220062,191.282532 394.055511,190.084702 
	C393.119385,189.121796 393.866241,186.522690 393.933777,184.078506 
	C394.001190,183.507416 394.009247,183.017746 394.009247,183.017746 
z"/>
<path fill="#DDE2D7" opacity="1.000000" stroke="none" 
	d="
M118.851761,184.349365 
	C119.311531,183.878571 119.564308,183.686188 120.218414,183.210190 
	C121.445992,182.661896 122.220657,182.329468 122.995331,181.997040 
	C124.466667,182.896988 125.938011,183.796921 127.701172,184.849670 
	C127.386246,186.773178 127.271263,189.141968 126.040596,190.153824 
	C124.689865,191.264420 121.996254,191.946396 120.447296,191.353485 
	C117.477196,190.216553 117.520439,187.401443 118.851761,184.349365 
z"/>
<path fill="#DDE2D7" opacity="1.000000" stroke="none" 
	d="
M353.007599,182.017212 
	C353.814270,182.129456 354.750000,182.017059 355.404877,182.393417 
	C358.024231,183.898743 360.169769,186.207581 358.521545,189.148056 
	C357.701385,190.611267 354.609070,191.988190 353.015717,191.577271 
	C349.939667,190.783966 348.159821,188.279480 350.273865,184.331131 
	C351.428650,183.293915 352.218109,182.655563 353.007599,182.017212 
z"/>
<path fill="#DEE3D7" opacity="1.000000" stroke="none" 
	d="
M343.995422,184.004883 
	C343.738953,186.088074 344.214142,189.066574 343.039642,190.026413 
	C341.592316,191.209229 338.535767,191.351929 336.646698,190.658447 
	C335.753418,190.330490 335.151245,186.627136 335.858948,185.138611 
	C336.865997,183.020508 339.077942,181.126633 341.950104,183.318695 
	C342.331268,183.609619 342.851379,183.718521 343.653564,183.955872 
	C344.000000,184.000000 343.995422,184.004883 343.995422,184.004883 
z"/>
<path fill="#DDE2D7" opacity="1.000000" stroke="none" 
	d="
M436.007446,184.009415 
	C438.421844,183.858551 440.992249,183.157242 443.187500,183.779480 
	C444.357330,184.111084 445.956879,187.486145 445.478882,188.168991 
	C444.306824,189.843323 442.140472,191.429245 440.179291,191.715500 
	C439.003418,191.887131 437.224792,189.717560 436.178467,188.267365 
	C435.617371,187.489700 436.032349,186.007782 436.003418,184.421829 
	C436.000000,184.000000 436.007446,184.009415 436.007446,184.009415 
z"/>
<path fill="#DDE2D7" opacity="1.000000" stroke="none" 
	d="
M256.992126,183.007339 
	C257.208252,183.798828 257.737427,184.659180 257.581329,185.368805 
	C257.127899,187.430176 256.959778,190.126633 255.594406,191.226028 
	C254.582016,192.041214 251.631393,191.171509 250.013428,190.238556 
	C249.059189,189.688293 248.245117,186.698608 248.706619,186.279343 
	C250.465103,184.681625 252.747482,183.644791 254.890167,182.503632 
	C255.193130,182.342285 255.806244,182.763260 256.637878,182.957352 
	C257.000000,183.000000 256.992126,183.007339 256.992126,183.007339 
z"/>
<path fill="#DDE2D7" opacity="1.000000" stroke="none" 
	d="
M31.514370,188.650146 
	C33.421841,181.986115 36.586029,180.249725 39.340298,184.118301 
	C40.466293,185.699844 40.931973,189.487701 39.914661,190.528198 
	C37.047100,193.461166 33.956524,192.085266 31.514370,188.650146 
z"/>
<path fill="#DFE4D8" opacity="1.000000" stroke="none" 
	d="
M62.004066,183.011597 
	C63.582069,182.930130 65.874908,182.162506 66.590919,182.908447 
	C68.133873,184.515900 69.445160,186.849625 69.637146,188.994797 
	C69.710968,189.819641 66.160393,192.041702 64.833656,191.656342 
	C63.043568,191.136429 61.700378,188.792557 60.407341,187.051682 
	C60.092869,186.628311 60.723232,185.503159 61.171181,184.233002 
	C61.683918,183.565796 61.877537,183.314560 62.004066,183.011597 
z"/>
<path fill="#DFE4D8" opacity="1.000000" stroke="none" 
	d="
M77.000610,183.002441 
	C80.788391,180.672836 82.652023,183.730820 84.120361,186.089737 
	C84.730087,187.069275 83.776154,190.350327 82.857811,190.675186 
	C80.969887,191.343002 77.626602,191.542648 76.718567,190.432709 
	C75.521935,188.970032 76.090790,186.063019 76.205597,183.392563 
	C76.510574,183.008163 77.000610,183.002441 77.000610,183.002441 
z"/>
<path fill="#DDE2D7" opacity="1.000000" stroke="none" 
	d="
M271.988190,184.012344 
	C271.993011,184.509445 271.981476,185.007339 272.005341,185.503525 
	C272.160553,188.730911 271.770996,191.868240 267.678925,191.893265 
	C263.940277,191.916153 262.085846,189.511871 262.300598,185.366974 
	C263.061157,184.629501 263.529968,184.312622 263.998779,183.995728 
	C266.425598,182.994431 268.848450,181.607544 271.654724,183.960175 
	C272.000000,184.000000 271.988190,184.012344 271.988190,184.012344 
z"/>
<path fill="#DDE2D7" opacity="1.000000" stroke="none" 
	d="
M54.085819,184.105270 
	C56.553104,186.470016 57.007416,189.021652 54.311546,190.548996 
	C52.741978,191.438263 49.612881,191.397705 48.290951,190.363068 
	C47.088787,189.422165 46.449043,186.045914 47.220268,184.679535 
	C48.572445,182.283875 51.260509,181.221375 54.085819,184.105270 
z"/>
<path fill="#DDE2D7" opacity="1.000000" stroke="none" 
	d="
M243.599655,188.502380 
	C242.484055,189.748810 241.546906,191.392197 240.572586,191.414551 
	C238.656555,191.458511 235.631332,191.140823 235.058975,189.985184 
	C234.291580,188.435760 234.820160,185.491592 235.943527,184.032654 
	C236.650650,183.114288 239.732269,183.253876 241.249741,183.972504 
	C242.474350,184.552429 242.952164,186.709274 243.599655,188.502380 
z"/>
<path fill="#DEE3D7" opacity="1.000000" stroke="none" 
	d="
M430.992676,184.006104 
	C431.907288,186.613419 432.523590,189.500092 429.449036,190.775421 
	C427.701569,191.500275 424.603485,191.523117 423.477905,190.441879 
	C422.446930,189.451492 423.122223,186.540497 423.318054,184.501968 
	C423.379822,183.859207 424.321198,183.300980 424.929993,182.352020 
	C425.000000,182.000000 425.006622,182.007690 425.006622,182.007690 
	C426.767395,182.640167 428.528198,183.272659 430.644470,183.952576 
	C431.000000,184.000000 430.992676,184.006104 430.992676,184.006104 
z"/>
<path fill="#E3EADE" opacity="1.000000" stroke="none" 
	d="
M226.403870,190.914627 
	C220.464676,190.974777 220.464676,190.974777 219.188370,185.890472 
	C222.118469,185.367157 223.616501,178.714432 227.728806,183.927582 
	C229.174438,185.760223 231.986938,189.243103 226.403870,190.914627 
z"/>
<path fill="#DFE4D8" opacity="1.000000" stroke="none" 
	d="
M411.225647,182.476593 
	C412.175049,182.552551 413.092255,182.559418 413.341217,182.970764 
	C414.497345,184.880768 416.035065,186.848358 416.233459,188.910995 
	C416.315704,189.766083 413.077789,192.003937 411.907318,191.668365 
	C410.124084,191.157120 407.896942,189.112732 407.610809,187.422684 
	C407.376282,186.037582 409.697418,184.219788 411.225647,182.476593 
z"/>
<path fill="#DEE3D7" opacity="1.000000" stroke="none" 
	d="
M112.997986,184.001556 
	C114.070000,189.320175 111.525169,193.075333 107.655251,191.582703 
	C106.155632,191.004288 103.948631,188.260208 104.251152,187.713913 
	C105.446930,185.554489 107.509865,183.875290 109.625458,182.009003 
	C109.999695,182.000000 110.000000,182.000000 110.151047,182.281616 
	C111.200417,183.043503 112.098755,183.523773 112.997093,184.004044 
	C112.997093,184.004044 113.000000,184.000046 112.997986,184.001556 
z"/>
<path fill="#DEE3D7" opacity="1.000000" stroke="none" 
	d="
M313.999542,191.229645 
	C311.594299,191.068039 309.262482,191.058640 307.480042,190.064392 
	C306.707886,189.633667 306.498932,186.922806 307.040527,185.689651 
	C307.973419,183.565704 309.247040,180.849045 312.554230,182.816483 
	C316.052124,184.897339 316.847656,187.592422 313.999542,191.229645 
z"/>
<path fill="#DEE3D7" opacity="1.000000" stroke="none" 
	d="
M133.042114,188.802750 
	C134.303925,186.347214 135.599243,184.290176 136.894562,182.233139 
	C138.300003,183.134857 140.623611,183.817993 140.902161,184.987991 
	C141.354050,186.885971 141.200714,189.991699 139.986267,190.996994 
	C137.601212,192.971268 134.678604,192.542953 133.042114,188.802750 
z"/>
<path fill="#DDE2D7" opacity="1.000000" stroke="none" 
	d="
M328.214111,183.817612 
	C330.339996,188.326187 329.458130,191.694138 326.183929,191.828476 
	C324.598938,191.893478 321.826904,190.962646 321.586060,189.989349 
	C321.097015,188.013062 321.382751,185.297745 322.501343,183.687317 
	C323.119019,182.798004 326.070587,183.529816 328.214111,183.817612 
z"/>
<path fill="#DDE2D7" opacity="1.000000" stroke="none" 
	d="
M458.602051,183.426712 
	C460.615143,186.541367 460.343018,189.348862 457.762604,191.193924 
	C456.745392,191.921249 453.671173,191.588531 453.085938,190.707474 
	C452.019348,189.101654 451.263641,186.392792 451.911316,184.747711 
	C452.976257,182.042831 455.547211,181.028244 458.602051,183.426712 
z"/>
<path fill="#DEE3D7" opacity="1.000000" stroke="none" 
	d="
M387.960938,187.147614 
	C386.292542,188.997269 384.793549,191.094345 382.847137,191.664825 
	C381.869476,191.951385 379.272552,189.667328 378.889160,188.167267 
	C378.530823,186.765091 379.669403,184.120636 380.955933,183.321152 
	C384.620728,181.043701 386.462006,183.840744 387.960938,187.147614 
z"/>
<path fill="#DFE4D8" opacity="1.000000" stroke="none" 
	d="
M207.000610,183.003708 
	C208.417725,182.671509 209.834824,182.339310 211.623230,182.006790 
	C211.994507,182.006454 212.000000,182.000000 211.996933,182.002747 
	C212.285721,182.763565 212.650330,183.502609 212.854507,184.283600 
	C213.295624,185.970932 214.482437,188.175537 213.836746,189.253952 
	C213.034897,190.593155 210.521652,191.859665 209.059830,191.571854 
	C207.718704,191.307800 206.634842,189.025192 205.754089,187.454498 
	C205.352371,186.738052 205.712357,185.594513 205.985245,184.114288 
	C206.444946,183.323959 206.697281,183.130554 207.000610,183.003708 
z"/>
<path fill="#DFE4D8" opacity="1.000000" stroke="none" 
	d="
M292.698853,184.982971 
	C294.798950,182.000565 297.185364,181.251099 299.255035,184.039307 
	C300.295135,185.440521 301.025299,188.250214 300.297760,189.469528 
	C299.492950,190.818283 296.665253,191.970886 295.066742,191.620438 
	C291.931702,190.933136 291.455353,188.199860 292.698853,184.982971 
z"/>
<path fill="#DFE4D8" opacity="1.000000" stroke="none" 
	d="
M278.005890,183.007507 
	C280.102203,182.975388 282.198517,182.943253 284.653870,183.203186 
	C285.019897,183.662003 285.026886,183.828781 285.033875,183.995544 
	C284.866669,186.378723 284.981506,188.847412 284.305573,191.076340 
	C284.162201,191.549164 280.835449,191.723740 279.493317,191.031494 
	C276.391815,189.431839 276.767212,186.561768 277.950745,183.378677 
	C278.000000,183.000000 278.005890,183.007507 278.005890,183.007507 
z"/>
<path fill="#DFE4D8" opacity="1.000000" stroke="none" 
	d="
M191.441711,184.831909 
	C193.530029,183.630295 195.407349,180.995331 197.462997,183.797363 
	C198.655869,185.423325 199.689529,187.686890 199.534058,189.558838 
	C199.457703,190.478088 196.254456,192.078979 194.931290,191.708893 
	C193.367950,191.271667 192.189056,189.119736 191.095505,187.537003 
	C190.737015,187.018173 191.165436,185.955612 191.441711,184.831909 
z"/>
<path fill="#DEE3D7" opacity="1.000000" stroke="none" 
	d="
M155.649658,189.594055 
	C152.784515,192.787292 150.378082,192.465332 148.046844,189.494965 
	C145.444504,186.179169 148.278229,184.569016 150.382996,183.380310 
	C151.458298,182.773026 154.117249,183.216278 154.824661,184.135620 
	C155.805573,185.410385 155.623672,187.579941 155.649658,189.594055 
z"/>
<path fill="#DEE3D7" opacity="1.000000" stroke="none" 
	d="
M178.638489,191.649323 
	C175.484650,189.544739 175.260971,187.147141 177.595856,184.860931 
	C178.707443,183.772507 180.485168,183.364395 181.961151,182.648102 
	C182.953888,184.751114 184.861099,186.976456 184.602127,188.911972 
	C184.442490,190.105011 180.978409,190.855896 178.638489,191.649323 
z"/>
<path fill="#DFE4D8" opacity="1.000000" stroke="none" 
	d="
M95.433884,191.688675 
	C91.080765,192.134491 89.532166,189.885254 90.252426,186.394424 
	C90.560455,184.901535 92.648026,182.487564 93.508148,182.654190 
	C95.552277,183.050201 97.544037,184.529739 99.115013,186.033234 
	C99.556297,186.455551 98.646820,188.580170 98.012177,189.734421 
	C97.583221,190.514603 96.550972,190.963074 95.433884,191.688675 
z"/>
<path fill="#F5E4DA" opacity="1.000000" stroke="none" 
	d="
M250.067139,168.340759 
	C257.020538,168.000458 264.041718,168.000320 271.531433,168.000397 
	C270.524292,168.666916 269.101410,169.709183 267.562439,169.925598 
	C263.700409,170.468689 259.995422,169.378403 256.271301,172.891861 
	C253.073380,175.908890 252.057404,170.466019 250.067139,168.340759 
z"/>
<path fill="#F5E4DA" opacity="1.000000" stroke="none" 
	d="
M147.000000,175.000000 
	C147.262939,176.995560 147.525879,178.991104 147.788818,180.986664 
	C145.968567,180.917343 143.293213,181.561111 142.512451,180.624893 
	C141.049072,178.870117 135.815643,178.407486 140.049179,174.132492 
	C142.849350,174.407059 144.924683,174.703537 147.000000,175.000000 
z"/>
<path fill="#F5E4DA" opacity="1.000000" stroke="none" 
	d="
M290.070740,168.347198 
	C294.689240,168.000473 299.378510,168.000336 304.533875,168.000397 
	C302.012573,174.978607 295.299896,175.291779 290.070740,168.347198 
z"/>
<path fill="#F5E4DA" opacity="1.000000" stroke="none" 
	d="
M352.951721,181.647888 
	C352.218109,182.655563 351.428650,183.293915 350.322784,183.970612 
	C348.247986,184.000977 346.489594,183.992966 344.363281,183.994919 
	C343.995422,184.004883 344.000000,184.000000 343.997650,184.002136 
	C343.487549,182.670929 342.979797,181.337570 342.479065,180.001602 
	C346.962952,176.758301 349.932831,177.123367 352.951721,181.647888 
z"/>
<path fill="#F5E4DA" opacity="1.000000" stroke="none" 
	d="
M233.207336,169.266876 
	C236.365143,168.666748 239.730286,168.333481 243.548019,168.000412 
	C243.916946,168.314377 243.899841,168.667801 243.739944,168.936142 
	C239.217773,176.524933 238.949188,176.538757 233.207336,169.266876 
z"/>
<path fill="#F5E4DA" opacity="1.000000" stroke="none" 
	d="
M425.003754,182.003326 
	C424.047546,182.191956 422.876556,182.090622 422.165588,182.614120 
	C419.628082,184.482513 417.564362,183.586823 416.540009,181.246353 
	C416.172943,180.407761 417.749512,177.704117 418.798309,177.471451 
	C420.978119,176.987885 424.273651,175.330048 424.964722,179.676254 
	C425.041840,180.161362 424.991943,180.666687 425.003784,181.585159 
	C425.006622,182.007690 425.000000,182.000000 425.003754,182.003326 
z"/>
<path fill="#F5E4DA" opacity="1.000000" stroke="none" 
	d="
M264.007080,183.627930 
	C263.529968,184.312622 263.061157,184.629501 262.300293,184.979553 
	C260.567719,184.371033 259.127106,183.729309 257.339325,183.047455 
	C256.992126,183.007339 257.000000,183.000000 256.996155,183.003952 
	C257.408539,181.338638 257.361328,179.231827 258.390747,178.141495 
	C259.183716,177.301590 262.302948,177.125900 262.682861,177.728943 
	C263.640533,179.249161 263.634949,181.376251 264.007080,183.627930 
z"/>
<path fill="#F5E4DA" opacity="1.000000" stroke="none" 
	d="
M77.000053,182.593628 
	C77.000610,183.002441 76.510574,183.008163 76.265808,183.010193 
	C75.028816,183.007919 73.951561,183.251251 73.062675,182.946014 
	C71.387650,182.370865 69.821182,181.479599 68.209587,180.719742 
	C69.188919,179.536865 70.260284,177.306839 71.128960,177.383148 
	C73.104401,177.556763 75.043762,178.753738 76.845718,179.797348 
	C77.229240,180.019455 76.965202,181.359695 77.000053,182.593628 
z"/>
<path fill="#F3E5DA" opacity="1.000000" stroke="none" 
	d="
M132.955658,174.658966 
	C131.895523,175.306183 130.791031,175.612366 129.343277,175.959320 
	C127.620445,175.064957 126.240898,174.129837 124.521019,172.964005 
	C124.636589,172.155746 124.810135,170.942062 124.991837,169.364502 
	C127.067947,168.668289 129.135895,168.335953 131.601929,168.002426 
	C132.303772,170.106796 132.607529,172.212372 132.955658,174.658966 
z"/>
<path fill="#F5E4DA" opacity="1.000000" stroke="none" 
	d="
M206.998749,182.610275 
	C206.697281,183.130554 206.444946,183.323959 206.123352,183.792252 
	C204.412796,183.637558 202.576279,183.647736 201.301392,182.806656 
	C200.023514,181.963562 199.306122,180.270935 198.343079,178.950653 
	C199.923065,178.480164 201.918488,177.188278 202.987183,177.728790 
	C204.654022,178.571777 205.692276,180.657639 206.998749,182.610275 
z"/>
<path fill="#F5E4DA" opacity="1.000000" stroke="none" 
	d="
M285.425964,183.995041 
	C285.026886,183.828781 285.019897,183.662003 285.007263,183.244873 
	C285.130707,181.691345 284.999908,179.362793 285.431702,179.253326 
	C288.013428,178.598816 290.724792,178.455582 294.238495,178.041092 
	C292.433533,183.581070 288.970459,183.519028 285.425964,183.995041 
z"/>
<path fill="#F5E4DA" opacity="1.000000" stroke="none" 
	d="
M246.490921,178.100372 
	C247.722885,179.401260 248.557571,180.645859 249.392258,181.890472 
	C247.704620,182.306854 245.825714,183.382996 244.380295,182.963943 
	C242.763275,182.495102 241.539185,180.671097 240.144089,179.436844 
	C240.279221,178.972595 240.414352,178.508331 240.549484,178.044083 
	C242.397537,178.044083 244.245590,178.044083 246.490921,178.100372 
z"/>
<path fill="#F5E4DA" opacity="1.000000" stroke="none" 
	d="
M62.044731,182.661011 
	C61.877537,183.314560 61.683918,183.565796 61.214760,183.884491 
	C60.247639,183.704819 59.376102,183.553711 58.752853,183.077591 
	C57.275959,181.949341 55.916870,180.666885 54.510159,179.446777 
	C56.205360,178.671844 57.953876,177.165329 59.583950,177.284119 
	C62.414848,177.490402 63.235207,179.630997 62.044731,182.661011 
z"/>
<path fill="#E3E7DB" opacity="1.000000" stroke="none" 
	d="
M364.997559,185.996628 
	C366.593872,182.088623 367.010986,181.857498 370.106079,183.870941 
	C370.904297,184.626678 371.459625,184.812195 372.014923,184.997696 
	C372.014923,184.997696 371.998779,185.001221 371.993408,185.412476 
	C371.993134,187.220581 371.998199,188.617447 372.003296,190.014313 
	C372.003296,190.014313 371.998779,189.998672 371.587280,189.998505 
	C369.777802,189.989090 368.379852,189.979843 366.981873,189.970581 
	C366.855530,189.680145 366.666809,189.438354 366.174011,188.810562 
	C365.620697,187.582809 365.309143,186.789719 364.997559,185.996628 
z"/>
<path fill="#F5E4DA" opacity="1.000000" stroke="none" 
	d="
M436.004761,184.003998 
	C434.615997,184.005859 433.222473,184.003738 431.410828,184.003845 
	C430.992676,184.006104 431.000000,184.000000 430.997162,184.003647 
	C430.369171,182.375366 429.743988,180.743439 428.682404,177.972290 
	C432.173004,178.309784 434.848175,178.568420 438.134308,178.886139 
	C437.160217,180.999863 436.626801,182.157303 436.050415,183.662079 
	C436.007446,184.009415 436.000000,184.000000 436.004761,184.003998 
z"/>
<path fill="#F5E5DC" opacity="1.000000" stroke="none" 
	d="
M229.000000,172.000000 
	C229.333054,173.091400 229.666107,174.182800 229.754639,175.858551 
	C229.340073,177.295258 229.170029,178.147629 229.000000,179.000000 
	C227.557770,178.766357 226.115540,178.532730 224.332382,177.814911 
	C223.660965,176.553833 223.330475,175.776917 223.000000,175.000000 
	C222.999969,174.555557 222.999939,174.111099 223.291046,173.181763 
	C225.388123,172.464584 227.194061,172.232300 229.000000,172.000000 
z"/>
<path fill="#F5E4DA" opacity="1.000000" stroke="none" 
	d="
M193.049500,168.369812 
	C195.699753,168.000473 198.400131,168.000336 201.550537,168.000397 
	C201.738831,168.596039 201.613632,169.322983 201.190201,169.762787 
	C199.805298,171.201248 198.311783,172.535126 196.860031,173.909210 
	C195.606552,172.185822 194.353088,170.462418 193.049500,168.369812 
z"/>
<path fill="#F5E4DA" opacity="1.000000" stroke="none" 
	d="
M32.127640,173.209412 
	C34.830406,174.409821 38.525608,175.238800 35.272530,178.876190 
	C34.559658,179.673279 31.593132,179.584839 30.584976,178.768036 
	C27.952349,176.635147 29.829369,174.794449 32.127640,173.209412 
z"/>
<path fill="#F5E4DA" opacity="1.000000" stroke="none" 
	d="
M394.047333,182.668579 
	C394.009247,183.017746 394.001190,183.507416 393.991730,183.752060 
	C393.030151,183.720078 391.910797,183.670059 391.162170,183.117645 
	C389.784607,182.101135 388.625092,180.789139 387.374695,179.600296 
	C388.913208,178.807785 390.550385,177.218948 391.968964,177.394684 
	C394.620544,177.723129 395.147034,179.897018 394.047333,182.668579 
z"/>
<path fill="#F5E4DA" opacity="1.000000" stroke="none" 
	d="
M278.003662,183.002960 
	C276.259613,183.337845 274.511932,183.669739 272.376221,184.006989 
	C271.988190,184.012344 272.000000,184.000000 271.994202,184.005920 
	C272.090637,182.185928 271.738831,180.124008 272.507751,178.644562 
	C272.837891,178.009369 275.673523,178.178772 277.024902,178.771393 
	C277.755005,179.091583 277.756073,181.074295 278.045959,182.657227 
	C278.005890,183.007507 278.000000,183.000000 278.003662,183.002960 
z"/>
<path fill="#F5E4DA" opacity="1.000000" stroke="none" 
	d="
M163.504883,179.805481 
	C160.540482,182.964920 157.532654,184.166168 153.915344,179.888779 
	C157.195541,177.233551 160.232697,177.203247 163.504883,179.805481 
z"/>
<path fill="#F5E4DA" opacity="1.000000" stroke="none" 
	d="
M445.030273,178.552704 
	C446.335602,178.264709 447.366150,177.872055 448.256592,178.079834 
	C449.409637,178.348877 450.450958,179.096725 451.540405,179.638428 
	C450.979828,180.558929 450.549255,182.124466 449.832214,182.269012 
	C448.214264,182.595123 446.415100,182.378769 444.790222,181.976700 
	C444.506226,181.906418 444.713043,179.852661 445.030273,178.552704 
z"/>
<path fill="#F5E4DA" opacity="1.000000" stroke="none" 
	d="
M229.145157,179.315567 
	C229.170029,178.147629 229.340073,177.295258 229.755051,176.221436 
	C232.244614,177.149094 234.489212,178.298187 236.784424,179.473190 
	C233.385162,183.963364 232.130035,183.939224 229.145157,179.315567 
z"/>
<path fill="#F3E5DA" opacity="1.000000" stroke="none" 
	d="
M146.955658,174.658966 
	C144.924683,174.703537 142.849350,174.407059 140.387009,174.055298 
	C140.332596,172.257812 140.665207,170.515640 140.998901,168.387024 
	C142.388885,168.000488 143.777786,168.000381 145.583344,168.000443 
	C146.303772,170.106384 146.607529,172.212143 146.955658,174.658966 
z"/>
<path fill="#F5E4DA" opacity="1.000000" stroke="none" 
	d="
M401.888397,181.267487 
	C402.610199,179.773529 403.368195,177.843719 404.547577,177.537674 
	C405.795227,177.213913 407.443939,178.435730 409.535919,179.211884 
	C406.922729,182.236923 405.141357,184.239044 401.888397,181.267487 
z"/>
<path fill="#F5E4DA" opacity="1.000000" stroke="none" 
	d="
M277.072601,168.350388 
	C279.700012,168.000473 282.400024,168.000336 285.550018,168.000397 
	C282.183746,174.842880 281.493164,174.897430 277.072601,168.350388 
z"/>
<path fill="#F5E4DA" opacity="1.000000" stroke="none" 
	d="
M83.381119,180.058319 
	C84.318558,178.923904 85.219185,177.608566 86.234482,177.513138 
	C87.326141,177.410507 88.842644,178.198029 89.558983,179.090561 
	C89.990067,179.627670 89.588135,181.613754 88.951782,182.040192 
	C88.048149,182.645676 86.515297,182.706970 85.383217,182.440475 
	C84.604584,182.257156 84.049690,181.123413 83.381119,180.058319 
z"/>
<path fill="#F5E4DA" opacity="1.000000" stroke="none" 
	d="
M229.000000,171.625000 
	C227.194061,172.232300 225.388123,172.464584 223.290924,172.848434 
	C222.666397,171.589996 222.333130,170.179993 221.999619,168.385284 
	C224.067535,168.332672 226.135681,168.664749 228.601913,168.998413 
	C229.000000,169.750000 229.000000,170.500000 229.000000,171.625000 
z"/>
<path fill="#F5E4DA" opacity="1.000000" stroke="none" 
	d="
M309.061951,168.331543 
	C310.714355,168.000473 312.428711,168.000336 314.571533,168.000397 
	C314.561615,169.196747 314.123230,170.392899 313.397827,172.372116 
	C311.662720,170.866089 310.393311,169.764282 309.061951,168.331543 
z"/>
<path fill="#D3D7CE" opacity="1.000000" stroke="none" 
	d="
M367.050049,190.311493 
	C368.379852,189.979843 369.777802,189.989090 371.595337,190.000931 
	C370.604553,191.894394 369.117218,193.203842 367.050049,190.311493 
z"/>
<path fill="#F5E5DC" opacity="1.000000" stroke="none" 
	d="
M348.375000,172.999634 
	C348.958557,172.784790 349.917084,172.570190 350.937805,172.677795 
	C350.250000,172.999954 349.500000,172.999908 348.375000,172.999634 
z"/>
<path fill="#F5E4DA" opacity="1.000000" stroke="none" 
	d="
M222.783371,175.183044 
	C223.330475,175.776917 223.660965,176.553833 223.995728,177.665070 
	C223.522247,177.121628 223.044495,176.243866 222.783371,175.183044 
z"/>
<path fill="#D3D7CE" opacity="1.000000" stroke="none" 
	d="
M372.257111,189.768829 
	C371.998199,188.617447 371.993134,187.220581 371.995422,185.404526 
	C372.172180,186.498001 372.341553,188.010681 372.257111,189.768829 
z"/>
<path fill="#D3D7CE" opacity="1.000000" stroke="none" 
	d="
M364.757690,186.207458 
	C365.309143,186.789719 365.620697,187.582809 365.973145,188.694427 
	C365.515259,188.148071 365.016541,187.283188 364.757690,186.207458 
z"/>
<path fill="#D3D7CE" opacity="1.000000" stroke="none" 
	d="
M371.836334,184.759521 
	C371.459625,184.812195 370.904297,184.626678 370.172119,184.198517 
	C370.549377,184.144363 371.103577,184.332855 371.836334,184.759521 
z"/>
<path fill="#E9EBE0" opacity="1.000000" stroke="none" 
	d="
M53.108242,410.416779 
	C184.350540,410.029633 315.709625,410.023529 447.537903,410.030701 
	C446.059814,410.871277 444.160339,412.221405 442.154175,412.404755 
	C439.052063,412.688263 435.877106,412.023254 432.732910,412.021332 
	C381.288422,411.989929 329.843903,411.999878 278.399414,411.999939 
	C205.356094,412.000061 132.312744,412.009399 59.269478,411.949280 
	C57.254345,411.947632 55.239826,411.198425 53.108242,410.416779 
z"/>
<path fill="#F2E5DA" opacity="1.000000" stroke="none" 
	d="
M165.675964,165.773376 
	C165.752136,166.382416 165.499878,166.911224 165.247620,167.440048 
	C164.854294,167.071594 164.460968,166.703125 164.033234,166.016174 
	C164.448380,165.696182 164.897949,165.694672 165.675964,165.773376 
z"/>
<path fill="#F3E5DA" opacity="1.000000" stroke="none" 
	d="
M26.492283,324.995605 
	C25.697096,305.776062 25.332195,286.553894 25.057114,267.330383 
	C24.954426,260.154266 25.061367,252.975128 25.083023,245.404053 
	C170.754501,245.003891 316.415680,244.997070 462.547424,244.979492 
	C465.946808,244.842392 466.022858,246.790848 466.020721,248.946243 
	C465.997009,272.827667 465.942291,296.709442 466.068604,320.590210 
	C466.087555,324.177216 464.762939,325.329132 461.400238,325.036835 
	C459.260681,324.850830 457.091400,325.007324 454.474243,325.015289 
	C311.661469,325.011017 169.309860,325.001740 26.492283,324.995605 
z"/>
<path fill="#F2E5DA" opacity="1.000000" stroke="none" 
	d="
M122.715767,181.878296 
	C122.220657,182.329468 121.445992,182.661896 120.337570,183.001282 
	C120.814606,182.592026 121.625404,182.175797 122.715767,181.878296 
z"/>
<path fill="#F2E5DA" opacity="1.000000" stroke="none" 
	d="
M112.930283,183.667755 
	C112.098755,183.523773 111.200417,183.043503 110.151047,182.281921 
	C110.954491,182.444229 111.908981,182.887848 112.930283,183.667755 
z"/>
</svg>